<?xml version="1.0" standalone="no"?>
<!DOCTYPE svg PUBLIC "-//W3C//DTD SVG 20010904//EN"
 "http://www.w3.org/TR/2001/REC-SVG-20010904/DTD/svg10.dtd">
<svg version="1.0" xmlns="http://www.w3.org/2000/svg"
 width="512.000000pt" height="512.000000pt" viewBox="0 0 512.000000 512.000000"
 preserveAspectRatio="xMidYMid meet">
<metadata>
Created by potrace 1.15, written by Peter Selinger 2001-2017
</metadata>
<g transform="translate(0.000000,512.000000) scale(0.100000,-0.100000)"
fill="#000000" stroke="none">
<path d="M3705 3716 c-88 -51 -256 -148 -373 -216 l-212 -122 18 -31 c11 -18
38 -64 61 -104 l41 -72 53 31 c126 75 324 187 341 194 17 6 18 4 13 -22 -65
-312 -137 -672 -137 -686 0 -22 88 -178 100 -178 5 0 75 39 157 86 81 47 245
142 363 210 118 68 221 128 229 133 10 7 1 30 -44 107 -31 55 -58 100 -60 102
-2 2 -97 -51 -211 -117 -115 -66 -210 -118 -212 -116 -4 4 13 94 78 405 72
343 71 304 14 404 -27 47 -51 86 -54 86 -3 0 -77 -42 -165 -94z"/>
<path d="M2866 3235 c-60 -35 -113 -68 -117 -72 -5 -5 70 -145 167 -313 97
-168 208 -360 246 -427 39 -68 75 -123 80 -123 8 0 238 130 238 135 0 1 -66
116 -147 256 -80 140 -189 328 -241 419 -52 91 -99 170 -106 177 -8 9 -37 -4
-120 -52z"/>
<path d="M2463 3004 c-62 -36 -113 -71 -113 -77 0 -5 61 -115 136 -244 158
-273 173 -305 174 -358 0 -71 -61 -140 -148 -166 -55 -16 -108 -1 -152 44 -32
32 -50 61 -230 372 -51 88 -95 164 -100 168 -4 4 -51 -18 -106 -49 -160 -91
-146 -79 -125 -117 314 -543 309 -535 380 -599 74 -66 131 -90 226 -96 66 -3
94 1 157 21 149 48 294 162 349 274 33 66 39 208 13 290 -10 31 -75 156 -144
277 -169 295 -184 319 -195 323 -6 1 -61 -27 -122 -63z"/>
<path d="M1392 2360 c-29 -4 -78 -18 -110 -31 -210 -83 -344 -258 -359 -469
-19 -264 175 -504 437 -542 203 -30 431 73 540 242 35 55 34 55 114 39 31 -7
59 -9 62 -6 11 10 44 191 37 198 -5 4 -33 11 -63 16 l-55 8 -7 75 c-21 242
-201 436 -433 470 -78 11 -88 11 -163 0z m166 -286 c58 -29 106 -79 133 -138
29 -65 28 -66 -67 -45 -48 11 -88 18 -89 17 -5 -5 -43 -203 -40 -206 1 -2 42
-10 90 -19 l88 -16 -29 -24 c-16 -13 -46 -33 -66 -44 -197 -103 -432 112 -366
335 15 51 102 141 149 154 66 19 141 14 197 -14z"/>
</g>
</svg>
